# Blender v2.82 (sub 7) OBJ File: ''
# www.blender.org
mtllib pig.mtl
o Pig_Mesh
v -0.400000 0.000000 1.336570
v 0.400000 0.000000 1.336570
v -0.400000 0.000000 0.536570
v 0.400000 0.000000 0.536570
v -0.400000 0.800000 1.336570
v 0.400000 0.800000 1.336570
v -0.400000 0.800000 0.536570
v 0.400000 0.800000 0.536570
v -0.500000 -0.200000 0.736570
v 0.500000 -0.200000 0.736570
v -0.500000 -0.200000 -0.863430
v 0.500000 -0.200000 -0.863430
v -0.500000 0.600000 0.736570
v 0.500000 0.600000 0.736570
v -0.500000 0.600000 -0.863430
v 0.500000 0.600000 -0.863430
v -0.200000 0.100000 1.336570
v 0.200000 0.100000 1.336570
v -0.200000 0.400000 1.336570
v 0.200000 0.400000 1.336570
v -0.200000 0.100000 1.436570
v 0.200000 0.100000 1.436570
v -0.200000 0.400000 1.436570
v 0.200000 0.400000 1.436570
v -0.500000 -0.800000 0.236570
v -0.100000 -0.800000 0.236570
v -0.500000 -0.200000 0.236570
v -0.100000 -0.200000 0.236570
v -0.500000 -0.800000 0.636570
v -0.100000 -0.800000 0.636570
v -0.500000 -0.200000 0.636570
v -0.100000 -0.200000 0.636570
v 0.100000 -0.800000 0.236570
v 0.500000 -0.800000 0.236570
v 0.100000 -0.200000 0.236570
v 0.500000 -0.200000 0.236570
v 0.100000 -0.800000 0.636570
v 0.500000 -0.800000 0.636570
v 0.100000 -0.200000 0.636570
v 0.500000 -0.200000 0.636570
v -0.500000 -0.800000 -0.963430
v -0.100000 -0.800000 -0.963430
v -0.500000 -0.200000 -0.963430
v -0.100000 -0.200000 -0.963430
v -0.500000 -0.800000 -0.563430
v -0.100000 -0.800000 -0.563430
v -0.500000 -0.200000 -0.563430
v -0.100000 -0.200000 -0.563430
v 0.100000 -0.800000 -0.963430
v 0.500000 -0.800000 -0.963430
v 0.100000 -0.200000 -0.963430
v 0.500000 -0.200000 -0.963430
v 0.100000 -0.800000 -0.563430
v 0.500000 -0.800000 -0.563430
v 0.100000 -0.200000 -0.563430
v 0.500000 -0.200000 -0.563430
vt 0.250000 0.875000
vt 0.250000 1.000000
vt 0.375000 1.000000
vt 0.375000 0.875000
vt 0.125000 0.875000
vt 0.250000 0.875000
vt 0.250000 1.000000
vt 0.125000 1.000000
vt 0.125000 0.750000
vt 0.250000 0.750000
vt 0.375000 0.750000
vt 0.375000 0.875000
vt 0.500000 0.750000
vt 0.500000 0.875000
vt 0.000000 0.750000
vt 0.000000 0.875000
vt 0.562500 0.750000
vt 0.562500 0.500000
vt 0.725000 0.500000
vt 0.725000 0.750000
vt 1.000000 0.750000
vt 0.850000 0.750000
vt 0.850000 0.500000
vt 1.000000 0.500000
vt 0.725000 0.875000
vt 0.562500 0.875000
vt 0.876033 0.750000
vt 0.726033 0.750000
vt 0.726044 0.875000
vt 0.876033 0.875000
vt 0.437491 0.750000
vt 0.437500 0.500000
vt 0.265943 0.687500
vt 0.328000 0.687500
vt 0.328000 0.734000
vt 0.265943 0.733957
vt 0.328000 0.750000
vt 0.387500 0.750000
vt 0.387500 0.734000
vt 0.328000 0.734000
vt 0.343000 0.687500
vt 0.343000 0.734000
vt 0.328000 0.750000
vt 0.265943 0.750000
vt 0.250000 0.733957
vt 0.250000 0.687500
vt 0.250000 0.600000
vt 0.250000 0.687500
vt 0.187500 0.687500
vt 0.187500 0.600000
vt 0.062500 0.600000
vt 0.125000 0.600000
vt 0.125000 0.687500
vt 0.062500 0.687500
vt 0.125000 0.750008
vt 0.187500 0.750008
vt 0.187500 0.687508
vt 0.125000 0.687508
vt 0.125000 0.750008
vt 0.062500 0.750000
vt 0.000000 0.687500
vt 0.000000 0.600000
vt 0.250000 0.600000
vt 0.250000 0.687500
vt 0.187500 0.687500
vt 0.187500 0.600000
vt 0.062500 0.600000
vt 0.125000 0.600000
vt 0.125000 0.687500
vt 0.062500 0.687500
vt 0.125000 0.750008
vt 0.187500 0.750008
vt 0.187500 0.687508
vt 0.125000 0.687508
vt 0.125000 0.750008
vt 0.062500 0.750000
vt 0.000000 0.687500
vt 0.000000 0.600000
vt 0.250000 0.600000
vt 0.250000 0.687500
vt 0.187500 0.687500
vt 0.187500 0.600000
vt 0.062500 0.600000
vt 0.125000 0.600000
vt 0.125000 0.687500
vt 0.062500 0.687500
vt 0.125000 0.750008
vt 0.187500 0.750008
vt 0.187500 0.687508
vt 0.125000 0.687508
vt 0.125000 0.750008
vt 0.062500 0.750000
vt 0.000000 0.687500
vt 0.000000 0.600000
vt 0.250000 0.600000
vt 0.250000 0.687500
vt 0.187500 0.687500
vt 0.187500 0.600000
vt 0.062500 0.600000
vt 0.125000 0.600000
vt 0.125000 0.687500
vt 0.062500 0.687500
vt 0.125000 0.750008
vt 0.187500 0.750008
vt 0.187500 0.687508
vt 0.125000 0.687508
vt 0.125000 0.750008
vt 0.062500 0.750000
vt 0.000000 0.687500
vt 0.000000 0.600000
vn 0.0000 -1.0000 0.0000
vn 0.0000 1.0000 0.0000
vn 0.0000 0.0000 1.0000
vn 1.0000 -0.0000 0.0000
vn 0.0000 0.0000 -1.0000
vn -1.0000 -0.0000 0.0000
usemtl 02_-_Default
s 1
f 1/1/1 3/2/1 4/3/1 2/4/1
f 5/5/2 6/6/2 8/7/2 7/8/2
f 1/9/3 2/10/3 6/6/3 5/5/3
f 2/10/4 4/11/4 8/12/4 6/6/4
f 4/11/5 3/13/5 7/14/5 8/12/5
f 3/15/6 1/9/6 5/5/6 7/16/6
f 9/17/1 11/18/1 12/19/1 10/20/1
f 13/21/2 14/22/2 16/23/2 15/24/2
f 9/17/3 10/20/3 14/25/3 13/26/3
f 10/20/4 12/19/4 16/23/4 14/22/4
f 12/27/5 11/28/5 15/29/5 16/30/5
f 11/18/6 9/17/6 13/31/6 15/32/6
f 21/33/3 22/34/3 24/35/3 23/36/3
f 17/37/1 18/38/1 22/39/1 21/40/1
f 18/41/4 20/42/4 24/35/4 22/34/4
f 20/43/2 19/44/2 23/36/2 24/35/2
f 19/45/6 17/46/6 21/33/6 23/36/6
f 25/47/5 27/48/5 28/49/5 26/50/5
f 29/51/3 30/52/3 32/53/3 31/54/3
f 25/55/1 26/56/1 30/57/1 29/58/1
f 26/50/4 28/49/4 32/53/4 30/52/4
f 28/59/2 27/60/2 31/54/2 32/53/2
f 27/61/6 25/62/6 29/51/6 31/54/6
f 33/63/5 35/64/5 36/65/5 34/66/5
f 37/67/3 38/68/3 40/69/3 39/70/3
f 33/71/1 34/72/1 38/73/1 37/74/1
f 34/66/4 36/65/4 40/69/4 38/68/4
f 36/75/2 35/76/2 39/70/2 40/69/2
f 35/77/6 33/78/6 37/67/6 39/70/6
f 41/79/5 43/80/5 44/81/5 42/82/5
f 45/83/3 46/84/3 48/85/3 47/86/3
f 41/87/1 42/88/1 46/89/1 45/90/1
f 42/82/4 44/81/4 48/85/4 46/84/4
f 44/91/2 43/92/2 47/86/2 48/85/2
f 43/93/6 41/94/6 45/83/6 47/86/6
f 49/95/5 51/96/5 52/97/5 50/98/5
f 53/99/3 54/100/3 56/101/3 55/102/3
f 49/103/1 50/104/1 54/105/1 53/106/1
f 50/98/4 52/97/4 56/101/4 54/100/4
f 52/107/2 51/108/2 55/102/2 56/101/2
f 51/109/6 49/110/6 53/99/6 55/102/6
