# Blender v2.82 (sub 7) OBJ File: ''
# www.blender.org
mtllib sheep.mtl
o Sheep_Sheep_0
v -0.400000 -0.057501 -0.997609
v -0.400000 0.542499 -0.997609
v 0.400000 0.542499 -0.997609
v 0.400000 -0.057501 -0.997609
v -0.400000 -0.057502 0.602391
v 0.400000 -0.057502 0.602391
v 0.400000 0.542499 0.602391
v -0.400000 0.542499 0.602391
v -0.400000 -0.057501 -0.997609
v 0.400000 -0.057501 -0.997609
v 0.400000 -0.057502 0.602391
v -0.400000 -0.057502 0.602391
v 0.400000 -0.057501 -0.997609
v 0.400000 0.542499 -0.997609
v 0.400000 0.542499 0.602391
v 0.400000 -0.057502 0.602391
v 0.400000 0.542499 -0.997609
v -0.400000 0.542499 -0.997609
v -0.400000 0.542499 0.602391
v 0.400000 0.542499 0.602391
v -0.400000 0.542499 -0.997609
v -0.400000 -0.057501 -0.997609
v -0.400000 -0.057502 0.602391
v -0.400000 0.542499 0.602391
v -0.300000 0.342499 0.402391
v -0.300000 0.942499 0.402391
v 0.300000 0.942499 0.402391
v 0.300000 0.342499 0.402391
v -0.300000 0.342498 1.202391
v 0.300000 0.342498 1.202391
v 0.300000 0.942499 1.202391
v -0.300000 0.942499 1.202391
v -0.300000 0.342499 0.402391
v 0.300000 0.342499 0.402391
v 0.300000 0.342498 1.202391
v -0.300000 0.342498 1.202391
v 0.300000 0.342499 0.402391
v 0.300000 0.942499 0.402391
v 0.300000 0.942499 1.202391
v 0.300000 0.342498 1.202391
v 0.300000 0.942499 0.402391
v -0.300000 0.942499 0.402391
v -0.300000 0.942499 1.202391
v 0.300000 0.942499 1.202391
v -0.300000 0.942499 0.402391
v -0.300000 0.342499 0.402391
v -0.300000 0.342498 1.202391
v -0.300000 0.942499 1.202391
v -0.500000 -1.257501 0.102391
v -0.500000 -0.057501 0.102391
v -0.100000 -0.057501 0.102391
v -0.100000 -1.257501 0.102391
v -0.500000 -1.257501 0.502391
v -0.100000 -1.257501 0.502391
v -0.100000 -0.057501 0.502391
v -0.500000 -0.057501 0.502391
v -0.500000 -1.257501 0.102391
v -0.100000 -1.257501 0.102391
v -0.100000 -1.257501 0.502391
v -0.500000 -1.257501 0.502391
v -0.100000 -1.257501 0.102391
v -0.100000 -0.057501 0.102391
v -0.100000 -0.057501 0.502391
v -0.100000 -1.257501 0.502391
v -0.100000 -0.057501 0.102391
v -0.500000 -0.057501 0.102391
v -0.500000 -0.057501 0.502391
v -0.100000 -0.057501 0.502391
v -0.500000 -0.057501 0.102391
v -0.500000 -1.257501 0.102391
v -0.500000 -1.257501 0.502391
v -0.500000 -0.057501 0.502391
v 0.100000 -1.257501 0.102391
v 0.100000 -0.057501 0.102391
v 0.500000 -0.057501 0.102391
v 0.500000 -1.257501 0.102391
v 0.100000 -1.257501 0.502391
v 0.500000 -1.257501 0.502391
v 0.500000 -0.057501 0.502391
v 0.100000 -0.057501 0.502391
v 0.100000 -1.257501 0.102391
v 0.500000 -1.257501 0.102391
v 0.500000 -1.257501 0.502391
v 0.100000 -1.257501 0.502391
v 0.500000 -1.257501 0.102391
v 0.500000 -0.057501 0.102391
v 0.500000 -0.057501 0.502391
v 0.500000 -1.257501 0.502391
v 0.500000 -0.057501 0.102391
v 0.100000 -0.057501 0.102391
v 0.100000 -0.057501 0.502391
v 0.500000 -0.057501 0.502391
v 0.100000 -0.057501 0.102391
v 0.100000 -1.257501 0.102391
v 0.100000 -1.257501 0.502391
v 0.100000 -0.057501 0.502391
v -0.500000 -1.257501 -1.097609
v -0.500000 -0.057501 -1.097609
v -0.100000 -0.057501 -1.097609
v -0.100000 -1.257501 -1.097609
v -0.500000 -1.257501 -0.697609
v -0.100000 -1.257501 -0.697609
v -0.100000 -0.057501 -0.697609
v -0.500000 -0.057501 -0.697609
v -0.500000 -1.257501 -1.097609
v -0.100000 -1.257501 -1.097609
v -0.100000 -1.257501 -0.697609
v -0.500000 -1.257501 -0.697609
v -0.100000 -1.257501 -1.097609
v -0.100000 -0.057501 -1.097609
v -0.100000 -0.057501 -0.697609
v -0.100000 -1.257501 -0.697609
v -0.100000 -0.057501 -1.097609
v -0.500000 -0.057501 -1.097609
v -0.500000 -0.057501 -0.697609
v -0.100000 -0.057501 -0.697609
v -0.500000 -0.057501 -1.097609
v -0.500000 -1.257501 -1.097609
v -0.500000 -1.257501 -0.697609
v -0.500000 -0.057501 -0.697609
v 0.100000 -1.257501 -1.097609
v 0.100000 -0.057501 -1.097609
v 0.500000 -0.057501 -1.097609
v 0.500000 -1.257501 -1.097609
v 0.100000 -1.257501 -0.697609
v 0.500000 -1.257501 -0.697609
v 0.500000 -0.057501 -0.697609
v 0.100000 -0.057501 -0.697609
v 0.100000 -1.257501 -1.097609
v 0.500000 -1.257501 -1.097609
v 0.500000 -1.257501 -0.697609
v 0.100000 -1.257501 -0.697609
v 0.500000 -1.257501 -1.097609
v 0.500000 -0.057501 -1.097609
v 0.500000 -0.057501 -0.697609
v 0.500000 -1.257501 -0.697609
v 0.500000 -0.057501 -1.097609
v 0.100000 -0.057501 -1.097609
v 0.100000 -0.057501 -0.697609
v 0.500000 -0.057501 -0.697609
v 0.100000 -0.057501 -1.097609
v 0.100000 -1.257501 -1.097609
v 0.100000 -1.257501 -0.697609
v 0.100000 -0.057501 -0.697609
vt 0.812500 0.218563
vt 0.812500 0.125000
vt 0.671628 0.125000
vt 0.671720 0.218563
vt 0.531204 0.218668
vt 0.671720 0.218563
vt 0.671628 0.125000
vt 0.531204 0.125000
vt 0.530951 0.468264
vt 0.656110 0.468311
vt 0.656363 0.218714
vt 0.531204 0.218668
vt 0.656110 0.468311
vt 0.750000 0.468311
vt 0.750253 0.218714
vt 0.656363 0.218714
vt 0.750000 0.468311
vt 0.875000 0.468311
vt 0.875000 0.218714
vt 0.750253 0.218714
vt 0.437500 0.468311
vt 0.530951 0.468264
vt 0.531204 0.218668
vt 0.437500 0.218714
vt 0.437479 0.218574
vt 0.437479 0.125000
vt 0.343760 0.125000
vt 0.343760 0.218574
vt 0.125000 0.218574
vt 0.218760 0.218574
vt 0.218760 0.125000
vt 0.125000 0.125000
vt 0.218760 0.000000
vt 0.312576 0.000000
vt 0.312691 0.125000
vt 0.218760 0.125000
vt 0.343760 0.218574
vt 0.343760 0.125000
vt 0.218760 0.125000
vt 0.218760 0.218574
vt 0.218760 0.000000
vt 0.125000 0.000000
vt 0.125000 0.125000
vt 0.218760 0.125000
vt 0.000000 0.125000
vt 0.000000 0.218574
vt 0.125000 0.218574
vt 0.125000 0.125000
vt 0.250000 0.500000
vt 0.250000 0.312500
vt 0.187500 0.312500
vt 0.187500 0.500000
vt 0.062500 0.500000
vt 0.125000 0.500000
vt 0.125000 0.312500
vt 0.062500 0.312500
vt 0.125000 0.250000
vt 0.187500 0.250000
vt 0.187500 0.312500
vt 0.125000 0.312500
vt 0.187500 0.500000
vt 0.187500 0.312500
vt 0.125000 0.312500
vt 0.125000 0.500000
vt 0.125000 0.250000
vt 0.062500 0.250000
vt 0.062500 0.312500
vt 0.125000 0.312500
vt 0.000000 0.312500
vt 0.000000 0.500000
vt 0.062500 0.500000
vt 0.062500 0.312500
vt 0.250000 0.500000
vt 0.250000 0.312500
vt 0.187500 0.312500
vt 0.187500 0.500000
vt 0.062500 0.500000
vt 0.125000 0.500000
vt 0.125000 0.312500
vt 0.062500 0.312500
vt 0.125000 0.250000
vt 0.187500 0.250000
vt 0.187500 0.312500
vt 0.125000 0.312500
vt 0.187500 0.500000
vt 0.187500 0.312500
vt 0.125000 0.312500
vt 0.125000 0.500000
vt 0.125000 0.250000
vt 0.062500 0.250000
vt 0.062500 0.312500
vt 0.125000 0.312500
vt 0.000000 0.312500
vt 0.000000 0.500000
vt 0.062500 0.500000
vt 0.062500 0.312500
vt 0.250000 0.500000
vt 0.250000 0.312500
vt 0.187500 0.312500
vt 0.187500 0.500000
vt 0.062500 0.500000
vt 0.125000 0.500000
vt 0.125000 0.312500
vt 0.062500 0.312500
vt 0.125000 0.250000
vt 0.187500 0.250000
vt 0.187500 0.312500
vt 0.125000 0.312500
vt 0.187500 0.500000
vt 0.187500 0.312500
vt 0.125000 0.312500
vt 0.125000 0.500000
vt 0.125000 0.250000
vt 0.062500 0.250000
vt 0.062500 0.312500
vt 0.125000 0.312500
vt 0.000000 0.312500
vt 0.000000 0.500000
vt 0.062500 0.500000
vt 0.062500 0.312500
vt 0.250000 0.500000
vt 0.250000 0.312500
vt 0.187500 0.312500
vt 0.187500 0.500000
vt 0.062500 0.500000
vt 0.125000 0.500000
vt 0.125000 0.312500
vt 0.062500 0.312500
vt 0.125000 0.250000
vt 0.187500 0.250000
vt 0.187500 0.312500
vt 0.125000 0.312500
vt 0.187500 0.500000
vt 0.187500 0.312500
vt 0.125000 0.312500
vt 0.125000 0.500000
vt 0.125000 0.250000
vt 0.062500 0.250000
vt 0.062500 0.312500
vt 0.125000 0.312500
vt 0.000000 0.312500
vt 0.000000 0.500000
vt 0.062500 0.500000
vt 0.062500 0.312500
vn 0.0000 0.0000 -1.0000
vn 0.0000 -0.0000 1.0000
vn 0.0000 -1.0000 -0.0000
vn 1.0000 -0.0000 0.0000
vn 0.0000 1.0000 0.0000
vn -1.0000 -0.0000 0.0000
usemtl Sheep
s off
f 1/1/1 2/2/1 3/3/1
f 1/1/1 3/3/1 4/4/1
f 5/5/2 6/6/2 7/7/2
f 5/5/2 7/7/2 8/8/2
f 9/9/3 10/10/3 11/11/3
f 9/9/3 11/11/3 12/12/3
f 13/13/4 14/14/4 15/15/4
f 13/13/4 15/15/4 16/16/4
f 17/17/5 18/18/5 19/19/5
f 17/17/5 19/19/5 20/20/5
f 21/21/6 22/22/6 23/23/6
f 21/21/6 23/23/6 24/24/6
f 25/25/1 26/26/1 27/27/1
f 25/25/1 27/27/1 28/28/1
f 29/29/2 30/30/2 31/31/2
f 29/29/2 31/31/2 32/32/2
f 33/33/3 34/34/3 35/35/3
f 33/33/3 35/35/3 36/36/3
f 37/37/4 38/38/4 39/39/4
f 37/37/4 39/39/4 40/40/4
f 41/41/5 42/42/5 43/43/5
f 41/41/5 43/43/5 44/44/5
f 45/45/6 46/46/6 47/47/6
f 45/45/6 47/47/6 48/48/6
f 49/49/1 50/50/1 51/51/1
f 49/49/1 51/51/1 52/52/1
f 53/53/2 54/54/2 55/55/2
f 53/53/2 55/55/2 56/56/2
f 57/57/3 58/58/3 59/59/3
f 57/57/3 59/59/3 60/60/3
f 61/61/4 62/62/4 63/63/4
f 61/61/4 63/63/4 64/64/4
f 65/65/5 66/66/5 67/67/5
f 65/65/5 67/67/5 68/68/5
f 69/69/6 70/70/6 71/71/6
f 69/69/6 71/71/6 72/72/6
f 73/73/1 74/74/1 75/75/1
f 73/73/1 75/75/1 76/76/1
f 77/77/2 78/78/2 79/79/2
f 77/77/2 79/79/2 80/80/2
f 81/81/3 82/82/3 83/83/3
f 81/81/3 83/83/3 84/84/3
f 85/85/4 86/86/4 87/87/4
f 85/85/4 87/87/4 88/88/4
f 89/89/5 90/90/5 91/91/5
f 89/89/5 91/91/5 92/92/5
f 93/93/6 94/94/6 95/95/6
f 93/93/6 95/95/6 96/96/6
f 97/97/1 98/98/1 99/99/1
f 97/97/1 99/99/1 100/100/1
f 101/101/2 102/102/2 103/103/2
f 101/101/2 103/103/2 104/104/2
f 105/105/3 106/106/3 107/107/3
f 105/105/3 107/107/3 108/108/3
f 109/109/4 110/110/4 111/111/4
f 109/109/4 111/111/4 112/112/4
f 113/113/5 114/114/5 115/115/5
f 113/113/5 115/115/5 116/116/5
f 117/117/6 118/118/6 119/119/6
f 117/117/6 119/119/6 120/120/6
f 121/121/1 122/122/1 123/123/1
f 121/121/1 123/123/1 124/124/1
f 125/125/2 126/126/2 127/127/2
f 125/125/2 127/127/2 128/128/2
f 129/129/3 130/130/3 131/131/3
f 129/129/3 131/131/3 132/132/3
f 133/133/4 134/134/4 135/135/4
f 133/133/4 135/135/4 136/136/4
f 137/137/5 138/138/5 139/139/5
f 137/137/5 139/139/5 140/140/5
f 141/141/6 142/142/6 143/143/6
f 141/141/6 143/143/6 144/144/6
o Sheep_Fur_Sheep_Fur_0
v -0.600000 -0.207501 -1.161974
v -0.600000 0.692499 -1.161974
v 0.600000 0.692499 -1.161974
v 0.600000 -0.207501 -1.161974
v -0.600000 -0.207502 0.766756
v 0.600000 -0.207502 0.766756
v 0.600000 0.692498 0.766756
v -0.600000 0.692498 0.766756
v -0.600000 -0.207501 -1.161974
v 0.600000 -0.207501 -1.161974
v 0.600000 -0.207502 0.766756
v -0.600000 -0.207502 0.766756
v 0.600000 -0.207501 -1.161974
v 0.600000 0.692499 -1.161974
v 0.600000 0.692498 0.766756
v 0.600000 -0.207502 0.766756
v 0.600000 0.692499 -1.161974
v -0.600000 0.692499 -1.161974
v -0.600000 0.692498 0.766756
v 0.600000 0.692498 0.766756
v -0.600000 0.692499 -1.161974
v -0.600000 -0.207501 -1.161974
v -0.600000 -0.207502 0.766756
v -0.600000 0.692498 0.766756
v -0.330000 0.312499 0.397194
v -0.330000 0.972499 0.397195
v 0.330000 0.972499 0.397195
v 0.330000 0.312499 0.397194
v -0.330000 0.312498 1.057194
v 0.330000 0.312498 1.057194
v 0.330000 0.972499 1.057195
v -0.330000 0.972499 1.057195
v -0.330000 0.312499 0.397194
v 0.330000 0.312499 0.397194
v 0.330000 0.312498 1.057194
v -0.330000 0.312498 1.057194
v 0.330000 0.312499 0.397194
v 0.330000 0.972499 0.397195
v 0.330000 0.972499 1.057195
v 0.330000 0.312498 1.057194
v 0.330000 0.972499 0.397195
v -0.330000 0.972499 0.397195
v -0.330000 0.972499 1.057195
v 0.330000 0.972499 1.057195
v -0.330000 0.972499 0.397195
v -0.330000 0.312499 0.397194
v -0.330000 0.312498 1.057194
v -0.330000 0.972499 1.057195
v -0.550000 -0.657502 0.052391
v -0.550000 0.092498 0.052391
v -0.050000 0.092498 0.052391
v -0.050000 -0.657502 0.052391
v -0.550000 -0.657502 0.552391
v -0.050000 -0.657502 0.552391
v -0.050000 0.092498 0.552392
v -0.550000 0.092498 0.552392
v -0.550000 -0.657502 0.052391
v -0.050000 -0.657502 0.052391
v -0.050000 -0.657502 0.552391
v -0.550000 -0.657502 0.552391
v -0.050000 -0.657502 0.052391
v -0.050000 0.092498 0.052391
v -0.050000 0.092498 0.552392
v -0.050000 -0.657502 0.552391
v -0.050000 0.092498 0.052391
v -0.550000 0.092498 0.052391
v -0.550000 0.092498 0.552392
v -0.050000 0.092498 0.552392
v -0.550000 0.092498 0.052391
v -0.550000 -0.657502 0.052391
v -0.550000 -0.657502 0.552391
v -0.550000 0.092498 0.552392
v 0.050000 -0.657502 0.052391
v 0.050000 0.092498 0.052391
v 0.550000 0.092498 0.052391
v 0.550000 -0.657502 0.052391
v 0.050000 -0.657502 0.552391
v 0.550000 -0.657502 0.552391
v 0.550000 0.092498 0.552392
v 0.050000 0.092498 0.552392
v 0.050000 -0.657502 0.052391
v 0.550000 -0.657502 0.052391
v 0.550000 -0.657502 0.552391
v 0.050000 -0.657502 0.552391
v 0.550000 -0.657502 0.052391
v 0.550000 0.092498 0.052391
v 0.550000 0.092498 0.552392
v 0.550000 -0.657502 0.552391
v 0.550000 0.092498 0.052391
v 0.050000 0.092498 0.052391
v 0.050000 0.092498 0.552392
v 0.550000 0.092498 0.552392
v 0.050000 0.092498 0.052391
v 0.050000 -0.657502 0.052391
v 0.050000 -0.657502 0.552391
v 0.050000 0.092498 0.552392
v -0.550000 -0.657501 -1.147609
v -0.550000 0.092499 -1.147609
v -0.050000 0.092499 -1.147609
v -0.050000 -0.657501 -1.147609
v -0.550000 -0.657501 -0.647609
v -0.050000 -0.657501 -0.647609
v -0.050000 0.092499 -0.647609
v -0.550000 0.092499 -0.647609
v -0.550000 -0.657501 -1.147609
v -0.050000 -0.657501 -1.147609
v -0.050000 -0.657501 -0.647609
v -0.550000 -0.657501 -0.647609
v -0.050000 -0.657501 -1.147609
v -0.050000 0.092499 -1.147609
v -0.050000 0.092499 -0.647609
v -0.050000 -0.657501 -0.647609
v -0.050000 0.092499 -1.147609
v -0.550000 0.092499 -1.147609
v -0.550000 0.092499 -0.647609
v -0.050000 0.092499 -0.647609
v -0.550000 0.092499 -1.147609
v -0.550000 -0.657501 -1.147609
v -0.550000 -0.657501 -0.647609
v -0.550000 0.092499 -0.647609
v 0.050000 -0.657501 -1.147609
v 0.050000 0.092499 -1.147609
v 0.550000 0.092499 -1.147609
v 0.550000 -0.657501 -1.147609
v 0.050000 -0.657501 -0.647609
v 0.550000 -0.657501 -0.647609
v 0.550000 0.092499 -0.647609
v 0.050000 0.092499 -0.647609
v 0.050000 -0.657501 -1.147609
v 0.550000 -0.657501 -1.147609
v 0.550000 -0.657501 -0.647609
v 0.050000 -0.657501 -0.647609
v 0.550000 -0.657501 -1.147609
v 0.550000 0.092499 -1.147609
v 0.550000 0.092499 -0.647609
v 0.550000 -0.657501 -0.647609
v 0.550000 0.092499 -1.147609
v 0.050000 0.092499 -1.147609
v 0.050000 0.092499 -0.647609
v 0.550000 0.092499 -0.647609
v 0.050000 0.092499 -1.147609
v 0.050000 -0.657501 -1.147609
v 0.050000 -0.657501 -0.647609
v 0.050000 0.092499 -0.647609
vt 0.812500 0.218563
vt 0.812500 0.125000
vt 0.671628 0.125000
vt 0.671720 0.218563
vt 0.531204 0.218668
vt 0.671720 0.218563
vt 0.671628 0.125000
vt 0.531204 0.125000
vt 0.530951 0.468264
vt 0.656110 0.468311
vt 0.656363 0.218714
vt 0.531204 0.218668
vt 0.656110 0.468311
vt 0.750000 0.468311
vt 0.750253 0.218714
vt 0.656363 0.218714
vt 0.750000 0.468311
vt 0.875000 0.468311
vt 0.875000 0.218714
vt 0.750253 0.218714
vt 0.437500 0.468311
vt 0.530951 0.468264
vt 0.531204 0.218668
vt 0.437500 0.218714
vt 0.375356 0.187898
vt 0.375356 0.094324
vt 0.281447 0.094324
vt 0.281447 0.187898
vt 0.093947 0.187898
vt 0.187707 0.187898
vt 0.187707 0.094324
vt 0.093947 0.094324
vt 0.187631 0.000000
vt 0.281447 0.000000
vt 0.281447 0.094324
vt 0.187707 0.094324
vt 0.281447 0.187898
vt 0.281447 0.094324
vt 0.187707 0.094324
vt 0.187707 0.187898
vt 0.187631 0.000000
vt 0.093871 0.000000
vt 0.093947 0.094324
vt 0.187707 0.094324
vt 0.000342 0.094324
vt 0.000342 0.187898
vt 0.093947 0.187898
vt 0.093947 0.094324
vt 0.250000 0.418913
vt 0.250000 0.312500
vt 0.187500 0.312500
vt 0.187500 0.418913
vt 0.062500 0.418913
vt 0.125000 0.418913
vt 0.125000 0.312500
vt 0.062500 0.312500
vt 0.125000 0.250000
vt 0.187500 0.250000
vt 0.187500 0.312500
vt 0.125000 0.312500
vt 0.187500 0.418913
vt 0.187500 0.312500
vt 0.125000 0.312500
vt 0.125000 0.418913
vt 0.125000 0.250000
vt 0.062500 0.250000
vt 0.062500 0.312500
vt 0.125000 0.312500
vt 0.000000 0.312500
vt 0.000000 0.418913
vt 0.062500 0.418913
vt 0.062500 0.312500
vt 0.250000 0.418913
vt 0.250000 0.312500
vt 0.187500 0.312500
vt 0.187500 0.418913
vt 0.062500 0.418913
vt 0.125000 0.418913
vt 0.125000 0.312500
vt 0.062500 0.312500
vt 0.125000 0.250000
vt 0.187500 0.250000
vt 0.187500 0.312500
vt 0.125000 0.312500
vt 0.187500 0.418913
vt 0.187500 0.312500
vt 0.125000 0.312500
vt 0.125000 0.418913
vt 0.125000 0.250000
vt 0.062500 0.250000
vt 0.062500 0.312500
vt 0.125000 0.312500
vt 0.000000 0.312500
vt 0.000000 0.418913
vt 0.062500 0.418913
vt 0.062500 0.312500
vt 0.250000 0.418913
vt 0.250000 0.312500
vt 0.187500 0.312500
vt 0.187500 0.418913
vt 0.062500 0.418913
vt 0.125000 0.418913
vt 0.125000 0.312500
vt 0.062500 0.312500
vt 0.125000 0.250000
vt 0.187500 0.250000
vt 0.187500 0.312500
vt 0.125000 0.312500
vt 0.187500 0.418913
vt 0.187500 0.312500
vt 0.125000 0.312500
vt 0.125000 0.418913
vt 0.125000 0.250000
vt 0.062500 0.250000
vt 0.062500 0.312500
vt 0.125000 0.312500
vt 0.000000 0.312500
vt 0.000000 0.418913
vt 0.062500 0.418913
vt 0.062500 0.312500
vt 0.250000 0.418913
vt 0.250000 0.312500
vt 0.187500 0.312500
vt 0.187500 0.418913
vt 0.062500 0.418913
vt 0.125000 0.418913
vt 0.125000 0.312500
vt 0.062500 0.312500
vt 0.125000 0.250000
vt 0.187500 0.250000
vt 0.187500 0.312500
vt 0.125000 0.312500
vt 0.187500 0.418913
vt 0.187500 0.312500
vt 0.125000 0.312500
vt 0.125000 0.418913
vt 0.125000 0.250000
vt 0.062500 0.250000
vt 0.062500 0.312500
vt 0.125000 0.312500
vt 0.000000 0.312500
vt 0.000000 0.418913
vt 0.062500 0.418913
vt 0.062500 0.312500
vn 0.0000 0.0000 -1.0000
vn 0.0000 -0.0000 1.0000
vn 0.0000 -1.0000 -0.0000
vn 1.0000 0.0000 0.0000
vn 0.0000 1.0000 0.0000
vn -1.0000 0.0000 0.0000
usemtl Sheep_Fur
s off
f 145/145/7 146/146/7 147/147/7
f 145/145/7 147/147/7 148/148/7
f 149/149/8 150/150/8 151/151/8
f 149/149/8 151/151/8 152/152/8
f 153/153/9 154/154/9 155/155/9
f 153/153/9 155/155/9 156/156/9
f 157/157/10 158/158/10 159/159/10
f 157/157/10 159/159/10 160/160/10
f 161/161/11 162/162/11 163/163/11
f 161/161/11 163/163/11 164/164/11
f 165/165/12 166/166/12 167/167/12
f 165/165/12 167/167/12 168/168/12
f 169/169/7 170/170/7 171/171/7
f 169/169/7 171/171/7 172/172/7
f 173/173/8 174/174/8 175/175/8
f 173/173/8 175/175/8 176/176/8
f 177/177/9 178/178/9 179/179/9
f 177/177/9 179/179/9 180/180/9
f 181/181/10 182/182/10 183/183/10
f 181/181/10 183/183/10 184/184/10
f 185/185/11 186/186/11 187/187/11
f 185/185/11 187/187/11 188/188/11
f 189/189/12 190/190/12 191/191/12
f 189/189/12 191/191/12 192/192/12
f 193/193/7 194/194/7 195/195/7
f 193/193/7 195/195/7 196/196/7
f 197/197/8 198/198/8 199/199/8
f 197/197/8 199/199/8 200/200/8
f 201/201/9 202/202/9 203/203/9
f 201/201/9 203/203/9 204/204/9
f 205/205/10 206/206/10 207/207/10
f 205/205/10 207/207/10 208/208/10
f 209/209/11 210/210/11 211/211/11
f 209/209/11 211/211/11 212/212/11
f 213/213/12 214/214/12 215/215/12
f 213/213/12 215/215/12 216/216/12
f 217/217/7 218/218/7 219/219/7
f 217/217/7 219/219/7 220/220/7
f 221/221/8 222/222/8 223/223/8
f 221/221/8 223/223/8 224/224/8
f 225/225/9 226/226/9 227/227/9
f 225/225/9 227/227/9 228/228/9
f 229/229/10 230/230/10 231/231/10
f 229/229/10 231/231/10 232/232/10
f 233/233/11 234/234/11 235/235/11
f 233/233/11 235/235/11 236/236/11
f 237/237/12 238/238/12 239/239/12
f 237/237/12 239/239/12 240/240/12
f 241/241/7 242/242/7 243/243/7
f 241/241/7 243/243/7 244/244/7
f 245/245/8 246/246/8 247/247/8
f 245/245/8 247/247/8 248/248/8
f 249/249/9 250/250/9 251/251/9
f 249/249/9 251/251/9 252/252/9
f 253/253/10 254/254/10 255/255/10
f 253/253/10 255/255/10 256/256/10
f 257/257/11 258/258/11 259/259/11
f 257/257/11 259/259/11 260/260/11
f 261/261/12 262/262/12 263/263/12
f 261/261/12 263/263/12 264/264/12
f 265/265/7 266/266/7 267/267/7
f 265/265/7 267/267/7 268/268/7
f 269/269/8 270/270/8 271/271/8
f 269/269/8 271/271/8 272/272/8
f 273/273/9 274/274/9 275/275/9
f 273/273/9 275/275/9 276/276/9
f 277/277/10 278/278/10 279/279/10
f 277/277/10 279/279/10 280/280/10
f 281/281/11 282/282/11 283/283/11
f 281/281/11 283/283/11 284/284/11
f 285/285/12 286/286/12 287/287/12
f 285/285/12 287/287/12 288/288/12
